<svg width="133" height="22" viewBox="0 0 133 22" fill="none" xmlns="http://www.w3.org/2000/svg">
<path fill-rule="evenodd" clip-rule="evenodd" d="M29.1648 -0.000550057L19.1863 16.6351C18.5155 17.7525 17.5739 18.3962 16.6031 18.3962C15.6365 18.3962 14.6991 17.7565 14.0283 16.6472L3.98306 -0.000550057H0.274964L0.00415039 0.157344L10.9951 18.376C12.3117 20.5622 14.3574 21.8173 16.6031 21.8173C18.853 21.8173 20.8987 20.5541 22.2194 18.3598L33.1354 0.141147L32.8688 -0.0126953L29.1648 -0.000550057ZM81.424 -0.000438862H87.6487C90.6509 -0.000438862 93.5303 1.15848 95.6532 3.22138C97.7761 5.28428 98.9688 8.08218 98.9688 10.9996C98.9688 13.9169 97.7761 16.7148 95.6532 18.7777C93.5303 20.8406 90.6509 21.9996 87.6487 21.9996H81.424C78.4218 21.9996 75.5424 20.8406 73.4195 18.7777C71.2966 16.7148 70.1039 13.9169 70.1039 10.9996C70.1039 8.08218 71.2966 5.28428 73.4195 3.22138C75.5424 1.15848 78.4218 -0.000438862 81.424 -0.000438862ZM81.424 18.5866H87.6487C89.6876 18.5408 91.6273 17.7216 93.0527 16.3041C94.4781 14.8866 95.2761 12.9834 95.2761 11.0016C95.2761 9.01972 94.4781 7.11653 93.0527 5.69905C91.6273 4.28157 89.6876 3.46234 87.6487 3.41657H81.424C79.385 3.46234 77.4454 4.28157 76.02 5.69905C74.5946 7.11653 73.7966 9.01972 73.7966 11.0016C73.7966 12.9834 74.5946 14.8866 76.02 16.3041C77.4454 17.7216 79.385 18.5408 81.424 18.5866ZM115.451 -0.000438862H121.676C124.678 -0.000438862 127.557 1.15848 129.68 3.22138C131.803 5.28428 132.996 8.08218 132.996 10.9996C132.996 13.9169 131.803 16.7148 129.68 18.7777C127.557 20.8406 124.678 21.9996 121.676 21.9996H115.451C112.449 21.9996 109.569 20.8406 107.447 18.7777C105.324 16.7148 104.131 13.9169 104.131 10.9996C104.131 8.08218 105.324 5.28428 107.447 3.22138C109.569 1.15848 112.449 -0.000438862 115.451 -0.000438862ZM115.451 18.5866H121.676C122.716 18.61 123.75 18.431 124.719 18.0603C125.687 17.6897 126.569 17.1347 127.313 16.428C128.057 15.7214 128.648 14.8773 129.052 13.9455C129.456 13.0136 129.664 12.0127 129.664 11.0016C129.664 9.99049 129.456 8.98959 129.052 8.05772C128.648 7.12584 128.057 6.28177 127.313 5.57513C126.569 4.86848 125.687 4.31351 124.719 3.94282C123.75 3.57213 122.716 3.39321 121.676 3.41657H115.451C113.412 3.46234 111.472 4.28157 110.047 5.69905C108.622 7.11653 107.824 9.01972 107.824 11.0016C107.824 12.9834 108.622 14.8866 110.047 16.3041C111.472 17.7216 113.412 18.5408 115.451 18.5866ZM63.2585 -0.000550058H67.1666V0.0115952V0.0804204L61.8253 10.2707C61.5064 10.8684 61.1488 11.4458 60.7545 11.9994L55.3965 22.0116H51.1718L54.1883 16.4691C53.7833 16.5475 53.372 16.5909 52.9592 16.5986C52.3897 16.6278 51.819 16.5704 51.2676 16.4286C48.3012 15.8618 45.6555 13.6958 43.8556 10.2828L38.4643 0.0601762L38.6059 -0.0126953H42.4015L47.0096 8.72414C48.4886 11.5581 50.6177 13.1776 52.8425 13.1776C54.4633 13.1735 56.0632 12.2909 57.3797 10.7039L63.2585 -0.000550058Z" fill="#231F20"/>
</svg>
